PathFileType	4	(X/Y/Z)	D:\TRACE\spotREDO_2-26-24\spot_Both_Motion_3_8-v60.trc
DataRate	CameraRate	NumFrames	NumMarkers	Units	OrigDataRate	OrigDataStartFrame	OrigNumFrames
100.00	100.00	      17	9	mm	100.00	876	      7000
Frame#	Time	front left toe			Front right toe			aft left toe			aft right toe			Arm			FL body			FR body			AL Body			AR Body			
		X1	Y1	Z1	X2	Y2	Z2	X3	Y3	Z3	X4	Y4	Z4	X5	Y5	Z5	X6	Y6	Z6	X7	Y7	Z7	X8	Y8	Z8	X9	Y9	Z9	

876	8.750	-151.76579	-4.88654	-454.21402	299.84903	-6.74394	-529.38483	-111.23563	24.21995	130.72292	298.39832	30.29096	104.11889	62.35034	675.01508	-781.01489	-39.92630	536.40399	-528.06476	115.29219	540.52246	-539.62610	20.68370	574.93060	353.20749	167.27649	568.85730	344.85767	
877	8.760	-151.64026	-5.05740	-454.20847	299.92380	-6.87591	-529.51074	-110.89159	24.27611	130.68306	298.86227	30.49230	104.19247	61.62802	675.21735	-781.29901	-40.79612	536.40485	-528.56555	114.60333	540.60712	-540.08643	20.59608	574.72296	352.43033	167.83234	569.03064	344.29971	
878	8.770	-151.53574	-5.29660	-454.19006	299.84509	-6.85141	-529.68646	-110.64700	24.26912	130.66206	299.04459	30.49014	104.16291	61.10319	675.26428	-781.53705	-41.39370	536.29126	-529.04425	113.63622	540.81250	-541.16620	20.56858	574.87665	352.06146	167.61723	569.21027	343.62082	
879	8.780	-151.49864	-5.40256	-454.18246	299.96780	-6.83759	-529.91248	-110.41829	24.30189	130.70718	299.24973	30.22087	103.98363	60.89436	675.23755	-781.75549	-41.86786	536.19360	-529.41571	112.96048	540.68561	-541.74689	20.28586	575.53467	351.72061	167.74373	569.47485	343.14755	
880	8.790	-151.42181	-5.68350	-454.10400	300.02997	-6.82239	-530.05481	-110.14442	24.51009	130.72235	299.39615	30.06013	103.69026	60.73976	675.16174	-781.91364	-42.90433	536.00372	-530.00128	112.12985	540.67767	-542.44476	20.41740	575.77704	351.14771	167.71701	569.71539	342.42087	
881	8.800	-151.37219	-5.91687	-454.14383	299.93539	-6.90909	-530.17896	-109.89224	24.62250	130.69075	299.68820	30.07518	103.51653	60.66735	674.90863	-782.03967	-43.39987	535.83179	-530.41425	111.71259	540.50751	-542.85779	20.52818	575.94031	350.60730	168.20663	570.03613	341.89517	
882	8.810	-151.25250	-6.11343	-454.17435	299.96378	-6.98964	-530.34711	-109.66792	24.60075	130.65016	299.98984	30.12227	103.33266	60.84906	674.59729	-782.30701	-43.71084	535.74518	-530.77765	111.20454	540.29578	-543.43732	20.54905	576.12207	349.99036	168.12027	570.26782	341.08533	
883	8.820	-151.17130	-6.18315	-454.20825	300.17929	-7.10379	-530.37683	-109.55222	24.54478	130.58720	300.06824	30.12247	103.25150	61.10511	674.41064	-782.44781	-44.07337	535.61304	-531.50800	110.73071	540.29993	-544.20166	21.18060	575.75970	349.16980	168.38626	570.43353	340.46790	
884	8.830	-151.07599	-6.17301	-454.18887	300.29630	-7.10153	-530.27478	-109.55861	24.64172	130.53889	300.23425	30.08976	103.23320	61.41659	674.33521	-782.50165	-44.38696	535.72424	-532.19580	110.59565	540.47418	-544.85797	21.32000	575.81885	348.64108	168.61797	570.46924	339.78552	
885	8.840	-150.91313	-6.14938	-454.21402	300.44370	-7.38888	-530.57617	-109.43623	24.64094	130.58527	300.37720	30.14358	103.23390	61.79625	674.40131	-782.59021	-44.39167	535.99109	-532.60413	110.58147	540.63580	-545.38922	21.67984	575.77557	348.11224	168.42688	570.31177	339.01617	
886	8.850	-150.75179	-6.12905	-454.22714	300.82529	-7.46674	-530.55328	-109.59292	24.85975	130.42978	300.47122	30.08877	103.26549	62.40568	674.57941	-782.52820	-44.34079	536.16064	-533.11304	110.68102	540.55603	-545.58282	21.49787	575.75269	347.52756	168.68083	570.34998	338.51743	
887	8.860	-150.60265	-6.14535	-454.25488	301.00302	-7.55057	-530.52295	-109.49635	24.87770	130.39093	300.55566	30.02851	103.28579	62.89547	674.83398	-782.56903	-44.28675	536.38751	-533.86401	110.84473	540.98877	-546.68457	21.54577	575.60675	346.84882	168.78975	570.33252	338.07428	
888	8.870	-150.22070	-6.27868	-454.35010	301.10690	-7.63849	-530.57721	-109.30306	24.74947	130.30757	300.63620	30.03482	103.29599	63.26900	675.01477	-782.65369	-43.93643	536.69922	-534.63702	111.19215	541.18597	-547.13147	21.51117	575.62689	346.30725	168.64079	570.18811	337.27698	
889	8.880	-149.95288	-6.30349	-454.44452	301.26178	-7.73256	-530.56958	-109.11939	24.75467	130.23701	300.73416	29.99926	103.22556	63.52637	675.10901	-782.74005	-43.61952	536.83838	-535.25909	111.55585	541.38098	-547.83276	21.33900	575.64709	345.59872	168.34473	570.16870	336.74341	
890	8.890	-149.89771	-6.07698	-454.58322	301.31754	-7.85262	-530.51398	-108.98977	24.73858	130.18687	300.77844	29.98348	103.21433	63.64870	675.14575	-782.79657	-42.99279	537.14929	-535.93671	111.98048	541.64880	-548.39191	21.21017	575.67450	344.88422	168.39377	570.19250	336.24213	
891	8.900	-149.83939	-5.87601	-454.80710	301.35715	-7.93837	-530.55090	-108.92942	24.81742	130.17363	300.87433	29.93653	103.22377	63.74957	675.17096	-782.85577	-42.31083	537.28571	-536.47321	112.42624	542.05347	-549.11517	21.40608	575.65112	344.28391	168.62257	570.29950	335.78076	
892	8.910	-149.61877	-5.70966	-454.84738	301.41592	-8.02932	-530.58337	-108.92186	24.89948	130.10736	300.86841	29.90123	103.22983	63.82174	675.07111	-782.73065	-42.17081	537.77588	-537.13702	112.78942	542.36108	-549.64801	21.31303	575.54901	343.67072	168.33275	570.14581	334.89139	
